<svg xmlns="http://www.w3.org/2000/svg" viewBox="0 0 512 512">
  <defs>
    <!-- Gradiente de Fundo Premium Dark -->
    <linearGradient id="bg" x1="0%" y1="0%" x2="100%" y2="100%">
      <stop offset="0%" stop-color="#09090e"/>
      <stop offset="100%" stop-color="#1a1a24"/>
    </linearGradient>
    <!-- Gradiente Neon para o Comando -->
    <linearGradient id="glow" x1="0%" y1="0%" x2="100%" y2="100%">
      <stop offset="0%" stop-color="#00F0FF"/>
      <stop offset="100%" stop-color="#7000FF"/>
    </linearGradient>
    <!-- Filtro de Brilho (Neon Glow) -->
    <filter id="neon" x="-20%" y="-20%" width="140%" height="140%">
      <feGaussianBlur stdDeviation="8" result="blur" />
      <feComposite in="SourceGraphic" in2="blur" operator="over" />
    </filter>
  </defs>

  <!-- Fundo Dark/Gamer com Borda Suave -->
  <rect width="512" height="512" rx="120" fill="url(#bg)"/>
  <rect x="16" y="16" width="480" height="480" rx="104" fill="none" stroke="rgba(255,255,255,0.05)" stroke-width="2"/>
  
  <!-- Detalhes Cyberpunk no Fundo -->
  <path d="M 0 150 L 30 150 L 50 170 L 50 200" fill="none" stroke="#00F0FF" stroke-width="3" opacity="0.5"/>
  <path d="M 512 350 L 482 350 L 462 330 L 462 300" fill="none" stroke="#7000FF" stroke-width="3" opacity="0.5"/>
  
  <!-- Controle Estilizado (Símbolo principal) -->
  <g transform="translate(106, 110)" filter="url(#neon)">
    <!-- Shape Principal do Comando -->
    <path d="M 20 60 C 0 60, 0 10, 50 0 C 110 -15, 140 25, 150 40 C 160 25, 190 -15, 250 0 C 300 10, 300 60, 280 60 C 280 140, 220 180, 150 200 C 80 180, 20 140, 20 60 Z" fill="none" stroke="url(#glow)" stroke-width="20" stroke-linejoin="round"/>
    
    <!-- Direcional (D-Pad) em Cyan -->
    <path d="M 65 65 h 15 v -15 h 12 v 15 h 15 v 12 h -15 v 15 h -12 v -15 h -15 z" fill="#00F0FF"/>
    
    <!-- Botões de Ação Dinâmicos -->
    <circle cx="210" cy="65" r="12" fill="#7000FF"/>
    <circle cx="235" cy="90" r="12" fill="#FF0055"/>
  </g>

  <!-- Tipografia Moderna (Gamer Social) -->
  <text x="256" y="385" font-family="'Russo One', 'Chakra Petch', sans-serif" font-weight="900" font-size="52" fill="#ffffff" text-anchor="middle" letter-spacing="3">THIAGUINHO</text>
  <text x="256" y="440" font-family="'Chakra Petch', sans-serif" font-weight="700" font-size="28" fill="#00F0FF" text-anchor="middle" letter-spacing="10">CONSOLE OS</text>
</svg>
